# xmcd CD database file
#
# Track frame offsets:
#	150
#	14274
#	42042
#	74183
#	112010
#	153437
#	188444
#	209336
#	250665
#	264285
#	282556
#	308187
#	321713
#
# Disc length: 4432 seconds
#
# Revision: 0
# Processed by: cddbd v1.5.2PL0 Copyright (c) Steve Scherf et al.
# Submitted via: CDex 1.51
#
DISCID=bf114e0d
DTITLE=Sandy Evans, Paul Cutlan, Phil Slater, Satsuki Odamura, Carl Dewhurst, Greg White, Steve Elphick, Simon Barker - GEST8 Kaleidoscope
DYEAR=2007
DGENRE=Jazz
TTITLE0=Mosaic (Odamura - Evans)
TTITLE1=A Shower Of Sunbeams (Evans)
TTITLE2=Winter Flight (Evans)
TTITLE3=Inner Space (Evans)
TTITLE4=The Emperor's Old Clothes (Gorman)
TTITLE5=Whistling At Dinner (Gorman)
TTITLE6=Kaleidiscope (Gorman)
TTITLE7=Lambent (Gorman)
TTITLE8=Platform (Slater - White)
TTITLE9=Suddanly Susanly (Gorman)
TTITLE10=School's Out (Evans)
TTITLE11=The March Of Captain Vanstone (Evans)
TTITLE12=Nothing Like (Dewhurst - Barker - Elphick - Slater)
EXTD=YEAR: 2007
EXTT0=
EXTT1=
EXTT2=
EXTT3=
EXTT4=
EXTT5=
EXTT6=
EXTT7=
EXTT8=
EXTT9=
EXTT10=
EXTT11=
EXTT12=
PLAYORDER=
